<svg width="93" height="96" viewBox="0 0 93 96" fill="none" xmlns="http://www.w3.org/2000/svg">
<rect x="0.534241" y="0.547974" width="91.7671" height="91.7671" rx="15" fill="white"/>
<path d="M28.855 71.6143H26.9957C26.9426 71.3094 26.8449 71.0393 26.7023 70.8039C26.5598 70.5653 26.3825 70.3631 26.1704 70.1974C25.9583 70.0317 25.7163 69.9074 25.4445 69.8245C25.1761 69.7384 24.886 69.6953 24.5745 69.6953C24.021 69.6953 23.5305 69.8345 23.1029 70.1129C22.6753 70.388 22.3406 70.7923 22.0986 71.326C21.8567 71.8563 21.7357 72.5042 21.7357 73.2698C21.7357 74.0487 21.8567 74.705 22.0986 75.2386C22.3439 75.7689 22.6787 76.1699 23.1029 76.4417C23.5305 76.7102 24.0193 76.8444 24.5695 76.8444C24.8744 76.8444 25.1595 76.8046 25.4246 76.7251C25.6931 76.6422 25.9334 76.5213 26.1455 76.3622C26.361 76.2031 26.5416 76.0075 26.6874 75.7755C26.8366 75.5435 26.9393 75.2784 26.9957 74.9801L28.855 74.99C28.7854 75.4739 28.6346 75.928 28.4026 76.3522C28.1739 76.7765 27.874 77.151 27.5028 77.4758C27.1316 77.7973 26.6974 78.0492 26.2002 78.2315C25.703 78.4105 25.1512 78.5 24.5447 78.5C23.6498 78.5 22.851 78.2928 22.1484 77.8785C21.4457 77.4642 20.8922 76.866 20.4878 76.0838C20.0835 75.3016 19.8813 74.3636 19.8813 73.2698C19.8813 72.1728 20.0852 71.2348 20.4928 70.4559C20.9005 69.6737 21.4557 69.0755 22.1583 68.6612C22.861 68.2469 23.6564 68.0397 24.5447 68.0397C25.1114 68.0397 25.6384 68.1193 26.1256 68.2784C26.6128 68.4375 27.047 68.6711 27.4282 68.9794C27.8093 69.2843 28.1226 69.6588 28.3678 70.1029C28.6164 70.5438 28.7788 71.0475 28.855 71.6143ZM33.7956 78.5099C33.0498 78.5099 32.4035 78.3458 31.8566 78.0177C31.3098 77.6896 30.8855 77.2305 30.5839 76.6406C30.2856 76.0506 30.1365 75.3612 30.1365 74.5724C30.1365 73.7836 30.2856 73.0925 30.5839 72.4992C30.8855 71.906 31.3098 71.4453 31.8566 71.1171C32.4035 70.789 33.0498 70.625 33.7956 70.625C34.5413 70.625 35.1876 70.789 35.7345 71.1171C36.2814 71.4453 36.7039 71.906 37.0022 72.4992C37.3038 73.0925 37.4546 73.7836 37.4546 74.5724C37.4546 75.3612 37.3038 76.0506 37.0022 76.6406C36.7039 77.2305 36.2814 77.6896 35.7345 78.0177C35.1876 78.3458 34.5413 78.5099 33.7956 78.5099ZM33.8055 77.0681C34.2099 77.0681 34.5479 76.9571 34.8197 76.735C35.0915 76.5097 35.2937 76.2081 35.4262 75.8302C35.5621 75.4524 35.6301 75.0314 35.6301 74.5674C35.6301 74.1001 35.5621 73.6775 35.4262 73.2997C35.2937 72.9185 35.0915 72.6153 34.8197 72.3899C34.5479 72.1645 34.2099 72.0518 33.8055 72.0518C33.3912 72.0518 33.0465 72.1645 32.7714 72.3899C32.4996 72.6153 32.2958 72.9185 32.1599 73.2997C32.0273 73.6775 31.961 74.1001 31.961 74.5674C31.961 75.0314 32.0273 75.4524 32.1599 75.8302C32.2958 76.2081 32.4996 76.5097 32.7714 76.735C33.0465 76.9571 33.3912 77.0681 33.8055 77.0681ZM40.7819 73.8863V78.3608H38.9822V70.7244H40.7023V72.022H40.7918C40.9675 71.5944 41.2476 71.2547 41.632 71.0028C42.0198 70.7509 42.4987 70.625 43.0688 70.625C43.5958 70.625 44.0548 70.7376 44.4459 70.963C44.8404 71.1884 45.1453 71.5149 45.3607 71.9424C45.5795 72.37 45.6872 72.8887 45.6839 73.4985V78.3608H43.8842V73.7769C43.8842 73.2665 43.7516 72.8671 43.4864 72.5788C43.2246 72.2904 42.8617 72.1463 42.3977 72.1463C42.0828 72.1463 41.8027 72.2159 41.5575 72.3551C41.3155 72.491 41.1249 72.6882 40.9857 72.9467C40.8498 73.2052 40.7819 73.5184 40.7819 73.8863ZM51.3266 70.7244V72.1164H46.9367V70.7244H51.3266ZM48.0205 68.8948H49.8202V76.0639C49.8202 76.3058 49.8567 76.4914 49.9296 76.6207C50.0058 76.7466 50.1053 76.8328 50.2279 76.8792C50.3505 76.9256 50.4864 76.9488 50.6356 76.9488C50.7483 76.9488 50.851 76.9405 50.9438 76.924C51.0399 76.9074 51.1129 76.8925 51.1626 76.8792L51.4658 78.2862C51.3697 78.3193 51.2322 78.3558 51.0532 78.3956C50.8775 78.4353 50.6621 78.4585 50.4069 78.4652C49.9561 78.4784 49.5501 78.4105 49.1888 78.2613C48.8276 78.1089 48.5409 77.8735 48.3288 77.5554C48.12 77.2372 48.0172 76.8394 48.0205 76.3622V68.8948ZM55.0292 78.5149C54.5453 78.5149 54.1095 78.4287 53.7217 78.2564C53.3372 78.0807 53.0323 77.8222 52.8069 77.4808C52.5849 77.1394 52.4738 76.7185 52.4738 76.218C52.4738 75.7871 52.5534 75.4308 52.7125 75.1491C52.8716 74.8674 53.0886 74.642 53.3637 74.473C53.6388 74.3039 53.9487 74.1763 54.2934 74.0902C54.6414 74.0007 55.001 73.936 55.3723 73.8963C55.8197 73.8499 56.1826 73.8084 56.461 73.772C56.7394 73.7322 56.9416 73.6725 57.0676 73.593C57.1968 73.5101 57.2615 73.3825 57.2615 73.2102V73.1804C57.2615 72.8058 57.1504 72.5158 56.9284 72.3103C56.7063 72.1048 56.3865 72.0021 55.9689 72.0021C55.528 72.0021 55.1784 72.0982 54.9198 72.2904C54.6646 72.4827 54.4923 72.7097 54.4028 72.9716L52.7224 72.7329C52.855 72.2689 53.0737 71.8811 53.3787 71.5696C53.6836 71.2547 54.0564 71.0194 54.4973 70.8636C54.9381 70.7045 55.4253 70.625 55.9589 70.625C56.3268 70.625 56.693 70.668 57.0576 70.7542C57.4222 70.8404 57.7553 70.9829 58.0569 71.1818C58.3585 71.3773 58.6005 71.6441 58.7828 71.9822C58.9684 72.3203 59.0612 72.7429 59.0612 73.25V78.3608H57.3311V77.3118H57.2714C57.162 77.5239 57.0079 77.7227 56.8091 77.9083C56.6135 78.0906 56.3666 78.2381 56.0683 78.3508C55.7733 78.4602 55.4269 78.5149 55.0292 78.5149ZM55.4966 77.1924C55.8578 77.1924 56.171 77.1212 56.4362 76.9787C56.7013 76.8328 56.9052 76.6406 57.0477 76.4019C57.1935 76.1633 57.2664 75.9031 57.2664 75.6214V74.7216C57.2101 74.768 57.114 74.811 56.9781 74.8508C56.8455 74.8906 56.6964 74.9254 56.5306 74.9552C56.3649 74.985 56.2009 75.0116 56.0385 75.0348C55.876 75.058 55.7352 75.0778 55.6159 75.0944C55.3474 75.1309 55.1071 75.1905 54.895 75.2734C54.6829 75.3563 54.5155 75.4723 54.3929 75.6214C54.2702 75.7672 54.2089 75.9562 54.2089 76.1882C54.2089 76.5196 54.3299 76.7698 54.5718 76.9389C54.8138 77.1079 55.122 77.1924 55.4966 77.1924ZM64.6841 70.7244V72.1164H60.2941V70.7244H64.6841ZM61.3779 68.8948H63.1777V76.0639C63.1777 76.3058 63.2141 76.4914 63.287 76.6207C63.3633 76.7466 63.4627 76.8328 63.5853 76.8792C63.708 76.9256 63.8439 76.9488 63.993 76.9488C64.1057 76.9488 64.2084 76.9405 64.3012 76.924C64.3974 76.9074 64.4703 76.8925 64.52 76.8792L64.8233 78.2862C64.7271 78.3193 64.5896 78.3558 64.4106 78.3956C64.235 78.4353 64.0195 78.4585 63.7643 78.4652C63.3135 78.4784 62.9075 78.4105 62.5463 78.2613C62.185 78.1089 61.8983 77.8735 61.6862 77.5554C61.4774 77.2372 61.3746 76.8394 61.3779 76.3622V68.8948ZM69.4381 78.5099C68.6924 78.5099 68.0461 78.3458 67.4992 78.0177C66.9523 77.6896 66.5281 77.2305 66.2265 76.6406C65.9282 76.0506 65.779 75.3612 65.779 74.5724C65.779 73.7836 65.9282 73.0925 66.2265 72.4992C66.5281 71.906 66.9523 71.4453 67.4992 71.1171C68.0461 70.789 68.6924 70.625 69.4381 70.625C70.1839 70.625 70.8302 70.789 71.3771 71.1171C71.9239 71.4453 72.3465 71.906 72.6448 72.4992C72.9464 73.0925 73.0972 73.7836 73.0972 74.5724C73.0972 75.3612 72.9464 76.0506 72.6448 76.6406C72.3465 77.2305 71.9239 77.6896 71.3771 78.0177C70.8302 78.3458 70.1839 78.5099 69.4381 78.5099ZM69.4481 77.0681C69.8524 77.0681 70.1905 76.9571 70.4623 76.735C70.7341 76.5097 70.9362 76.2081 71.0688 75.8302C71.2047 75.4524 71.2727 75.0314 71.2727 74.5674C71.2727 74.1001 71.2047 73.6775 71.0688 73.2997C70.9362 72.9185 70.7341 72.6153 70.4623 72.3899C70.1905 72.1645 69.8524 72.0518 69.4481 72.0518C69.0338 72.0518 68.6891 72.1645 68.414 72.3899C68.1422 72.6153 67.9384 72.9185 67.8025 73.2997C67.6699 73.6775 67.6036 74.1001 67.6036 74.5674C67.6036 75.0314 67.6699 75.4524 67.8025 75.8302C67.9384 76.2081 68.1422 76.5097 68.414 76.735C68.6891 76.9571 69.0338 77.0681 69.4481 77.0681Z" fill="#115B8F"/>
<path d="M60.1674 20.1682H58.2363V16.306H54.374V20.1682H38.925V16.306H35.0628V20.1682H33.1317C32.1073 20.1682 31.1249 20.5751 30.4006 21.2994C29.6763 22.0238 29.2694 23.0061 29.2694 24.0305V51.0662C29.2694 52.0906 29.6763 53.0729 30.4006 53.7973C31.1249 54.5216 32.1073 54.9285 33.1317 54.9285H60.1674C62.2917 54.9285 64.0297 53.1905 64.0297 51.0662V24.0305C64.0297 21.9062 62.2917 20.1682 60.1674 20.1682ZM46.6495 25.9616C49.8552 25.9616 52.4429 28.5493 52.4429 31.755C52.4429 34.9606 49.8552 37.5484 46.6495 37.5484C43.4439 37.5484 40.8562 34.9606 40.8562 31.755C40.8562 28.5493 43.4439 25.9616 46.6495 25.9616ZM58.2363 49.1351H35.0628V47.204C35.0628 43.3417 42.7873 41.2175 46.6495 41.2175C50.5118 41.2175 58.2363 43.3417 58.2363 47.204V49.1351Z" fill="#115B8F"/>
</svg>
