<svg width="93" height="93" viewBox="0 0 93 93" fill="none" xmlns="http://www.w3.org/2000/svg">
<rect x="0.76709" y="0.949768" width="91.7671" height="91.7671" rx="15" fill="white"/>
<path d="M17.3208 66.1992C17.2843 65.8581 17.1307 65.5924 16.8598 65.4023C16.5916 65.2122 16.2426 65.1172 15.813 65.1172C15.5109 65.1172 15.2518 65.1628 15.0356 65.2539C14.8195 65.3451 14.6541 65.4687 14.5395 65.625C14.4249 65.7812 14.3663 65.9596 14.3637 66.1602C14.3637 66.3268 14.4015 66.4714 14.477 66.5937C14.5551 66.7161 14.6606 66.8203 14.7934 66.9062C14.9262 66.9896 15.0734 67.0599 15.2348 67.1172C15.3963 67.1745 15.5591 67.2227 15.7231 67.2617L16.4731 67.4492C16.7752 67.5195 17.0656 67.6146 17.3442 67.7344C17.6255 67.8542 17.8768 68.0052 18.0981 68.1875C18.3221 68.3698 18.4992 68.5898 18.6294 68.8477C18.7596 69.1055 18.8247 69.4076 18.8247 69.7539C18.8247 70.2227 18.7049 70.6354 18.4653 70.9922C18.2257 71.3464 17.8794 71.6237 17.4262 71.8242C16.9757 72.0221 16.4301 72.1211 15.7895 72.1211C15.1671 72.1211 14.6268 72.0247 14.1684 71.832C13.7127 71.6393 13.3559 71.3581 13.0981 70.9883C12.8429 70.6185 12.7049 70.168 12.6841 69.6367H14.1098C14.1307 69.9154 14.2166 70.1471 14.3676 70.332C14.5187 70.5169 14.7153 70.6549 14.9575 70.7461C15.2023 70.8372 15.4757 70.8828 15.7778 70.8828C16.0929 70.8828 16.3689 70.8359 16.6059 70.7422C16.8455 70.6458 17.033 70.513 17.1684 70.3437C17.3038 70.1719 17.3729 69.9714 17.3755 69.7422C17.3729 69.5339 17.3117 69.362 17.1919 69.2266C17.0721 69.0885 16.9041 68.974 16.688 68.8828C16.4744 68.7891 16.2244 68.7057 15.938 68.6328L15.0278 68.3984C14.3689 68.2292 13.8481 67.9727 13.4653 67.6289C13.0851 67.2826 12.895 66.8229 12.895 66.25C12.895 65.7786 13.0226 65.3659 13.2778 65.0117C13.5356 64.6576 13.8859 64.3828 14.3286 64.1875C14.7713 63.9896 15.2726 63.8906 15.8325 63.8906C16.4002 63.8906 16.8976 63.9896 17.3247 64.1875C17.7544 64.3828 18.0916 64.6549 18.3364 65.0039C18.5812 65.3503 18.7075 65.7487 18.7153 66.1992H17.3208ZM22.7104 72.1172C22.1089 72.1172 21.5893 71.9922 21.1518 71.7422C20.7169 71.4896 20.3823 71.1328 20.1479 70.6719C19.9135 70.2083 19.7964 69.6628 19.7964 69.0352C19.7964 68.418 19.9135 67.8763 20.1479 67.4102C20.3849 66.9414 20.7156 66.5768 21.1401 66.3164C21.5646 66.0534 22.0633 65.9219 22.6362 65.9219C23.006 65.9219 23.355 65.9818 23.6831 66.1016C24.0138 66.2187 24.3055 66.401 24.5581 66.6484C24.8133 66.8958 25.0138 67.2109 25.1596 67.5937C25.3055 67.974 25.3784 68.4271 25.3784 68.9531V69.3867H20.4604V68.4336H24.0229C24.0203 68.1628 23.9617 67.9219 23.8471 67.7109C23.7326 67.4974 23.5724 67.3294 23.3667 67.207C23.1635 67.0846 22.9266 67.0234 22.6557 67.0234C22.3667 67.0234 22.1128 67.0937 21.894 67.2344C21.6753 67.3724 21.5047 67.5547 21.3823 67.7812C21.2625 68.0052 21.2013 68.2513 21.1987 68.5195V69.3516C21.1987 69.7005 21.2625 70 21.3901 70.25C21.5177 70.4974 21.6961 70.6875 21.9253 70.8203C22.1544 70.9505 22.4227 71.0156 22.73 71.0156C22.9357 71.0156 23.1219 70.987 23.2885 70.9297C23.4552 70.8698 23.5997 70.7826 23.7221 70.668C23.8445 70.5534 23.937 70.4115 23.9995 70.2422L25.3198 70.3906C25.2365 70.7396 25.0776 71.0443 24.8432 71.3047C24.6115 71.5625 24.3146 71.763 23.9526 71.9062C23.5906 72.0469 23.1766 72.1172 22.7104 72.1172ZM26.5747 72V66H27.9262V67.0195H27.9966C28.1216 66.6758 28.3286 66.4076 28.6176 66.2148C28.9067 66.0195 29.2518 65.9219 29.6528 65.9219C30.0591 65.9219 30.4015 66.0208 30.6801 66.2187C30.9614 66.4141 31.1593 66.681 31.2739 67.0195H31.3364C31.4692 66.6862 31.6932 66.4206 32.0083 66.2227C32.326 66.0221 32.7023 65.9219 33.1372 65.9219C33.6893 65.9219 34.1398 66.0964 34.4887 66.4453C34.8377 66.7943 35.0122 67.3034 35.0122 67.9727V72H33.5942V68.1914C33.5942 67.819 33.4952 67.5469 33.2973 67.375C33.0994 67.2005 32.8572 67.1133 32.5708 67.1133C32.2296 67.1133 31.9627 67.2201 31.77 67.4336C31.5799 67.6445 31.4848 67.9193 31.4848 68.2578V72H30.0981V68.1328C30.0981 67.8229 30.0044 67.5755 29.8169 67.3906C29.632 67.2057 29.3898 67.1133 29.0903 67.1133C28.8872 67.1133 28.7023 67.1654 28.5356 67.2695C28.3689 67.3711 28.2361 67.5156 28.1372 67.7031C28.0382 67.888 27.9887 68.1042 27.9887 68.3516V72H26.5747ZM36.4467 72V66H37.8608V72H36.4467ZM37.1577 65.1484C36.9337 65.1484 36.741 65.0742 36.5796 64.9258C36.4181 64.7747 36.3374 64.5937 36.3374 64.3828C36.3374 64.1693 36.4181 63.9883 36.5796 63.8398C36.741 63.6888 36.9337 63.6133 37.1577 63.6133C37.3842 63.6133 37.577 63.6888 37.7358 63.8398C37.8973 63.9883 37.978 64.1693 37.978 64.3828C37.978 64.5937 37.8973 64.7747 37.7358 64.9258C37.577 65.0742 37.3842 65.1484 37.1577 65.1484ZM40.729 68.4844V72H39.3149V66H40.6665V67.0195H40.7368C40.8748 66.6836 41.0949 66.4167 41.3969 66.2187C41.7016 66.0208 42.0779 65.9219 42.5258 65.9219C42.9399 65.9219 43.3006 66.0104 43.6079 66.1875C43.9178 66.3646 44.1574 66.6211 44.3266 66.957C44.4985 67.293 44.5831 67.7005 44.5805 68.1797V72H43.1665V68.3984C43.1665 67.9974 43.0623 67.6836 42.854 67.457C42.6482 67.2305 42.3631 67.1172 41.9985 67.1172C41.7511 67.1172 41.5311 67.1719 41.3383 67.2812C41.1482 67.388 40.9985 67.543 40.8891 67.7461C40.7824 67.9492 40.729 68.1953 40.729 68.4844ZM47.7446 72.1211C47.3644 72.1211 47.0219 72.0534 46.7173 71.918C46.4152 71.7799 46.1756 71.5768 45.9985 71.3086C45.824 71.0404 45.7368 70.7096 45.7368 70.3164C45.7368 69.9779 45.7993 69.6979 45.9243 69.4766C46.0493 69.2552 46.2199 69.0781 46.436 68.9453C46.6522 68.8125 46.8956 68.7122 47.1665 68.6445C47.4399 68.5742 47.7225 68.5234 48.0141 68.4922C48.3657 68.4557 48.6508 68.4232 48.8696 68.3945C49.0883 68.3633 49.2472 68.3164 49.3462 68.2539C49.4477 68.1888 49.4985 68.0885 49.4985 67.9531V67.9297C49.4985 67.6354 49.4113 67.4076 49.2368 67.2461C49.0623 67.0846 48.811 67.0039 48.4829 67.0039C48.1365 67.0039 47.8618 67.0794 47.6587 67.2305C47.4581 67.3815 47.3227 67.5599 47.2524 67.7656L45.9321 67.5781C46.0363 67.2135 46.2081 66.9089 46.4477 66.6641C46.6873 66.4167 46.9803 66.2318 47.3266 66.1094C47.673 65.9844 48.0558 65.9219 48.4751 65.9219C48.7641 65.9219 49.0519 65.9557 49.3383 66.0234C49.6248 66.0911 49.8865 66.2031 50.1235 66.3594C50.3605 66.513 50.5506 66.7227 50.6938 66.9883C50.8397 67.2539 50.9126 67.5859 50.9126 67.9844V72H49.5532V71.1758H49.5063C49.4204 71.3424 49.2993 71.4987 49.143 71.6445C48.9894 71.7878 48.7954 71.9036 48.561 71.9922C48.3292 72.0781 48.0571 72.1211 47.7446 72.1211ZM48.1118 71.082C48.3956 71.082 48.6417 71.026 48.8501 70.9141C49.0584 70.7995 49.2186 70.6484 49.3305 70.4609C49.4451 70.2734 49.5024 70.069 49.5024 69.8477V69.1406C49.4581 69.1771 49.3826 69.2109 49.2758 69.2422C49.1717 69.2734 49.0545 69.3008 48.9243 69.3242C48.7941 69.3477 48.6652 69.3685 48.5376 69.3867C48.41 69.4049 48.2993 69.4206 48.2055 69.4336C47.9946 69.4622 47.8058 69.5091 47.6391 69.5742C47.4725 69.6393 47.341 69.7305 47.2446 69.8477C47.1482 69.9622 47.1001 70.1107 47.1001 70.293C47.1001 70.5534 47.1951 70.75 47.3852 70.8828C47.5753 71.0156 47.8175 71.082 48.1118 71.082ZM47.9946 65.2109L48.8696 63.4258H50.2524L49.0532 65.2109H47.9946ZM52.3344 72V66H53.7055V67H53.768C53.8774 66.6536 54.0649 66.3867 54.3305 66.1992C54.5988 66.0091 54.9048 65.9141 55.2485 65.9141C55.3266 65.9141 55.4139 65.918 55.5102 65.9258C55.6092 65.931 55.6912 65.9401 55.7563 65.9531V67.2539C55.6964 67.2331 55.6014 67.2148 55.4712 67.1992C55.3436 67.181 55.2199 67.1719 55.1001 67.1719C54.8423 67.1719 54.6105 67.2279 54.4048 67.3398C54.2016 67.4492 54.0415 67.6016 53.9243 67.7969C53.8071 67.9922 53.7485 68.2174 53.7485 68.4727V72H52.3344ZM56.6958 72V66H58.1098V72H56.6958ZM57.4067 65.1484C57.1827 65.1484 56.99 65.0742 56.8286 64.9258C56.6671 64.7747 56.5864 64.5937 56.5864 64.3828C56.5864 64.1693 56.6671 63.9883 56.8286 63.8398C56.99 63.6888 57.1827 63.6133 57.4067 63.6133C57.6333 63.6133 57.826 63.6888 57.9848 63.8398C58.1463 63.9883 58.227 64.1693 58.227 64.3828C58.227 64.5937 58.1463 64.7747 57.9848 64.9258C57.826 65.0742 57.6333 65.1484 57.4067 65.1484ZM62.1811 72.1172C61.5952 72.1172 61.0874 71.9883 60.6577 71.7305C60.228 71.4727 59.8947 71.112 59.6577 70.6484C59.4233 70.1849 59.3061 69.6432 59.3061 69.0234C59.3061 68.4036 59.4233 67.8607 59.6577 67.3945C59.8947 66.9284 60.228 66.5664 60.6577 66.3086C61.0874 66.0508 61.5952 65.9219 62.1811 65.9219C62.7671 65.9219 63.2749 66.0508 63.7046 66.3086C64.1342 66.5664 64.4663 66.9284 64.7007 67.3945C64.9376 67.8607 65.0561 68.4036 65.0561 69.0234C65.0561 69.6432 64.9376 70.1849 64.7007 70.6484C64.4663 71.112 64.1342 71.4727 63.7046 71.7305C63.2749 71.9883 62.7671 72.1172 62.1811 72.1172ZM62.1889 70.9844C62.5066 70.9844 62.7723 70.8971 62.9858 70.7227C63.1994 70.5456 63.3582 70.3086 63.4624 70.0117C63.5691 69.7148 63.6225 69.3841 63.6225 69.0195C63.6225 68.6523 63.5691 68.3203 63.4624 68.0234C63.3582 67.724 63.1994 67.4857 62.9858 67.3086C62.7723 67.1315 62.5066 67.043 62.1889 67.043C61.8634 67.043 61.5926 67.1315 61.3764 67.3086C61.1629 67.4857 61.0027 67.724 60.896 68.0234C60.7918 68.3203 60.7397 68.6523 60.7397 69.0195C60.7397 69.3841 60.7918 69.7148 60.896 70.0117C61.0027 70.3086 61.1629 70.5456 61.3764 70.7227C61.5926 70.8971 61.8634 70.9844 62.1889 70.9844ZM70.9985 67.5859L69.7094 67.7266C69.673 67.5964 69.6092 67.474 69.518 67.3594C69.4295 67.2448 69.3097 67.1523 69.1587 67.082C69.0076 67.0117 68.8227 66.9766 68.604 66.9766C68.3097 66.9766 68.0623 67.0404 67.8618 67.168C67.6639 67.2956 67.5662 67.4609 67.5688 67.6641C67.5662 67.8385 67.63 67.9805 67.7602 68.0898C67.893 68.1992 68.1118 68.2891 68.4165 68.3594L69.4399 68.5781C70.0076 68.7005 70.4295 68.8945 70.7055 69.1602C70.9842 69.4258 71.1248 69.7734 71.1274 70.2031C71.1248 70.5807 71.0141 70.9141 70.7954 71.2031C70.5792 71.4896 70.2785 71.7135 69.893 71.875C69.5076 72.0365 69.0649 72.1172 68.5649 72.1172C67.8305 72.1172 67.2394 71.9635 66.7915 71.6562C66.3436 71.3464 66.0766 70.9154 65.9907 70.3633L67.3696 70.2305C67.4321 70.5013 67.5649 70.7057 67.768 70.8437C67.9712 70.9818 68.2355 71.0508 68.561 71.0508C68.8969 71.0508 69.1665 70.9818 69.3696 70.8437C69.5753 70.7057 69.6782 70.5352 69.6782 70.332C69.6782 70.1602 69.6118 70.0182 69.479 69.9062C69.3488 69.7943 69.1456 69.7083 68.8696 69.6484L67.8462 69.4336C67.2706 69.3138 66.8449 69.112 66.5688 68.8281C66.2928 68.5417 66.1561 68.1797 66.1587 67.7422C66.1561 67.3724 66.2563 67.0521 66.4594 66.7812C66.6652 66.5078 66.9503 66.2969 67.3149 66.1484C67.6821 65.9974 68.1053 65.9219 68.5844 65.9219C69.2876 65.9219 69.841 66.0716 70.2446 66.3711C70.6508 66.6706 70.9022 67.0755 70.9985 67.5859ZM77.6782 72.1172C77.0766 72.1172 76.5571 71.9922 76.1196 71.7422C75.6847 71.4896 75.3501 71.1328 75.1157 70.6719C74.8813 70.2083 74.7641 69.6628 74.7641 69.0352C74.7641 68.418 74.8813 67.8763 75.1157 67.4102C75.3527 66.9414 75.6834 66.5768 76.1079 66.3164C76.5324 66.0534 77.0311 65.9219 77.604 65.9219C77.9738 65.9219 78.3227 65.9818 78.6508 66.1016C78.9816 66.2187 79.2732 66.401 79.5258 66.6484C79.7811 66.8958 79.9816 67.2109 80.1274 67.5937C80.2732 67.974 80.3462 68.4271 80.3462 68.9531V69.3867H75.4282V68.4336H78.9907C78.9881 68.1628 78.9295 67.9219 78.8149 67.7109C78.7003 67.4974 78.5402 67.3294 78.3344 67.207C78.1313 67.0846 77.8943 67.0234 77.6235 67.0234C77.3344 67.0234 77.0805 67.0937 76.8618 67.2344C76.643 67.3724 76.4725 67.5547 76.3501 67.7812C76.2303 68.0052 76.1691 68.2513 76.1665 68.5195V69.3516C76.1665 69.7005 76.2303 70 76.3579 70.25C76.4855 70.4974 76.6639 70.6875 76.893 70.8203C77.1222 70.9505 77.3904 71.0156 77.6977 71.0156C77.9035 71.0156 78.0897 70.987 78.2563 70.9297C78.423 70.8698 78.5675 70.7826 78.6899 70.668C78.8123 70.5534 78.9048 70.4115 78.9673 70.2422L80.2876 70.3906C80.2042 70.7396 80.0454 71.0443 79.811 71.3047C79.5792 71.5625 79.2824 71.763 78.9204 71.9062C78.5584 72.0469 78.1443 72.1172 77.6782 72.1172ZM25.3584 77.6992H23.8974C23.8558 77.4596 23.7789 77.2474 23.667 77.0625C23.555 76.875 23.4157 76.7161 23.249 76.5859C23.0823 76.4557 22.8922 76.3581 22.6787 76.293C22.4677 76.2253 22.2399 76.1914 21.9951 76.1914C21.5602 76.1914 21.1748 76.3008 20.8388 76.5195C20.5029 76.7357 20.2399 77.0534 20.0498 77.4727C19.8597 77.8893 19.7646 78.3984 19.7646 79C19.7646 79.612 19.8597 80.1276 20.0498 80.5469C20.2425 80.9635 20.5055 81.2786 20.8388 81.4922C21.1748 81.7031 21.5589 81.8086 21.9912 81.8086C22.2308 81.8086 22.4547 81.7773 22.6631 81.7148C22.874 81.6497 23.0628 81.5547 23.2295 81.4297C23.3987 81.3047 23.5407 81.151 23.6552 80.9687C23.7724 80.7865 23.8532 80.5781 23.8974 80.3437L25.3584 80.3516C25.3037 80.7318 25.1852 81.0885 25.0029 81.4219C24.8232 81.7552 24.5875 82.0495 24.2959 82.3047C24.0042 82.5573 23.6631 82.7552 23.2724 82.8984C22.8818 83.0391 22.4482 83.1094 21.9716 83.1094C21.2685 83.1094 20.6409 82.9466 20.0888 82.6211C19.5368 82.2956 19.1019 81.8255 18.7841 81.2109C18.4664 80.5964 18.3076 79.8594 18.3076 79C18.3076 78.138 18.4677 77.401 18.7881 76.7891C19.1084 76.1745 19.5446 75.7044 20.0966 75.3789C20.6487 75.0534 21.2737 74.8906 21.9716 74.8906C22.417 74.8906 22.831 74.9531 23.2138 75.0781C23.5966 75.2031 23.9378 75.3867 24.2373 75.6289C24.5368 75.8685 24.7828 76.1628 24.9756 76.5117C25.1709 76.8581 25.2985 77.2539 25.3584 77.6992ZM29.2402 83.1172C28.6543 83.1172 28.1465 82.9883 27.7168 82.7305C27.2871 82.4727 26.9537 82.112 26.7168 81.6484C26.4824 81.1849 26.3652 80.6432 26.3652 80.0234C26.3652 79.4036 26.4824 78.8607 26.7168 78.3945C26.9537 77.9284 27.2871 77.5664 27.7168 77.3086C28.1465 77.0508 28.6543 76.9219 29.2402 76.9219C29.8261 76.9219 30.334 77.0508 30.7636 77.3086C31.1933 77.5664 31.5254 77.9284 31.7597 78.3945C31.9967 78.8607 32.1152 79.4036 32.1152 80.0234C32.1152 80.6432 31.9967 81.1849 31.7597 81.6484C31.5254 82.112 31.1933 82.4727 30.7636 82.7305C30.334 82.9883 29.8261 83.1172 29.2402 83.1172ZM29.248 81.9844C29.5657 81.9844 29.8313 81.8971 30.0449 81.7227C30.2584 81.5456 30.4173 81.3086 30.5215 81.0117C30.6282 80.7148 30.6816 80.3841 30.6816 80.0195C30.6816 79.6523 30.6282 79.3203 30.5215 79.0234C30.4173 78.724 30.2584 78.4857 30.0449 78.3086C29.8313 78.1315 29.5657 78.043 29.248 78.043C28.9225 78.043 28.6517 78.1315 28.4355 78.3086C28.222 78.4857 28.0618 78.724 27.955 79.0234C27.8509 79.3203 27.7988 79.6523 27.7988 80.0195C27.7988 80.3841 27.8509 80.7148 27.955 81.0117C28.0618 81.3086 28.222 81.5456 28.4355 81.7227C28.6517 81.8971 28.9225 81.9844 29.248 81.9844ZM34.7295 79.4844V83H33.3154V77H34.667V78.0195H34.7373C34.8753 77.6836 35.0953 77.4167 35.3974 77.2187C35.7021 77.0208 36.0784 76.9219 36.5263 76.9219C36.9404 76.9219 37.3011 77.0104 37.6084 77.1875C37.9183 77.3646 38.1578 77.6211 38.3271 77.957C38.499 78.293 38.5836 78.7005 38.581 79.1797V83H37.167V79.3984C37.167 78.9974 37.0628 78.6836 36.8545 78.457C36.6487 78.2305 36.3636 78.1172 35.999 78.1172C35.7516 78.1172 35.5315 78.1719 35.3388 78.2812C35.1487 78.388 34.999 78.543 34.8896 78.7461C34.7828 78.9492 34.7295 79.1953 34.7295 79.4844ZM45.1631 77L43.0263 83H41.4638L39.3271 77H40.8349L42.2138 81.457H42.2763L43.6591 77H45.1631ZM48.5937 83.1172C47.9922 83.1172 47.4726 82.9922 47.0351 82.7422C46.6002 82.4896 46.2656 82.1328 46.0312 81.6719C45.7968 81.2083 45.6797 80.6628 45.6797 80.0352C45.6797 79.418 45.7968 78.8763 46.0312 78.4102C46.2682 77.9414 46.5989 77.5768 47.0234 77.3164C47.4479 77.0534 47.9466 76.9219 48.5195 76.9219C48.8893 76.9219 49.2383 76.9818 49.5664 77.1016C49.8971 77.2187 50.1888 77.401 50.4414 77.6484C50.6966 77.8958 50.8971 78.2109 51.0429 78.5937C51.1888 78.974 51.2617 79.4271 51.2617 79.9531V80.3867H46.3437V79.4336H49.9062C49.9036 79.1628 49.845 78.9219 49.7304 78.7109C49.6159 78.4974 49.4557 78.3294 49.25 78.207C49.0468 78.0846 48.8099 78.0234 48.539 78.0234C48.25 78.0234 47.9961 78.0937 47.7773 78.2344C47.5586 78.3724 47.388 78.5547 47.2656 78.7812C47.1458 79.0052 47.0846 79.2513 47.082 79.5195V80.3516C47.082 80.7005 47.1458 81 47.2734 81.25C47.401 81.4974 47.5794 81.6875 47.8086 81.8203C48.0377 81.9505 48.306 82.0156 48.6133 82.0156C48.819 82.0156 49.0052 81.987 49.1718 81.9297C49.3385 81.8698 49.483 81.7826 49.6054 81.668C49.7278 81.5534 49.8203 81.4115 49.8828 81.2422L51.2031 81.3906C51.1198 81.7396 50.9609 82.0443 50.7265 82.3047C50.4948 82.5625 50.1979 82.763 49.8359 82.9062C49.4739 83.0469 49.0599 83.1172 48.5937 83.1172ZM53.872 79.4844V83H52.458V77H53.8095V78.0195H53.8799C54.0179 77.6836 54.2379 77.4167 54.54 77.2187C54.8447 77.0208 55.221 76.9219 55.6689 76.9219C56.083 76.9219 56.4437 77.0104 56.7509 77.1875C57.0608 77.3646 57.3004 77.6211 57.4697 77.957C57.6416 78.293 57.7262 78.7005 57.7236 79.1797V83H56.3095V79.3984C56.3095 78.9974 56.2054 78.6836 55.997 78.457C55.7913 78.2305 55.5062 78.1172 55.1416 78.1172C54.8942 78.1172 54.6741 78.1719 54.4814 78.2812C54.2913 78.388 54.1416 78.543 54.0322 78.7461C53.9254 78.9492 53.872 79.1953 53.872 79.4844ZM62.1572 77V78.0937H58.708V77H62.1572ZM59.5595 75.5625H60.9736V81.1953C60.9736 81.3854 61.0022 81.5313 61.0595 81.6328C61.1194 81.7318 61.1976 81.7995 61.2939 81.8359C61.3903 81.8724 61.497 81.8906 61.6142 81.8906C61.7028 81.8906 61.7835 81.8841 61.8564 81.8711C61.9319 81.8581 61.9892 81.8464 62.0283 81.8359L62.2666 82.9414C62.1911 82.9674 62.083 82.9961 61.9424 83.0273C61.8043 83.0586 61.6351 83.0768 61.4345 83.082C61.0804 83.0924 60.7614 83.0391 60.4775 82.9219C60.1937 82.8021 59.9684 82.6172 59.8017 82.3672C59.6377 82.1172 59.5569 81.8047 59.5595 81.4297V75.5625ZM65.8925 83.1172C65.3066 83.1172 64.7988 82.9883 64.3691 82.7305C63.9394 82.4727 63.6061 82.112 63.3691 81.6484C63.1347 81.1849 63.0175 80.6432 63.0175 80.0234C63.0175 79.4036 63.1347 78.8607 63.3691 78.3945C63.6061 77.9284 63.9394 77.5664 64.3691 77.3086C64.7988 77.0508 65.3066 76.9219 65.8925 76.9219C66.4785 76.9219 66.9863 77.0508 67.416 77.3086C67.8457 77.5664 68.1777 77.9284 68.4121 78.3945C68.6491 78.8607 68.7675 79.4036 68.7675 80.0234C68.7675 80.6432 68.6491 81.1849 68.4121 81.6484C68.1777 82.112 67.8457 82.4727 67.416 82.7305C66.9863 82.9883 66.4785 83.1172 65.8925 83.1172ZM65.9004 81.9844C66.2181 81.9844 66.4837 81.8971 66.6972 81.7227C66.9108 81.5456 67.0696 81.3086 67.1738 81.0117C67.2806 80.7148 67.334 80.3841 67.334 80.0195C67.334 79.6523 67.2806 79.3203 67.1738 79.0234C67.0696 78.724 66.9108 78.4857 66.6972 78.3086C66.4837 78.1315 66.2181 78.043 65.9004 78.043C65.5748 78.043 65.304 78.1315 65.0879 78.3086C64.8743 78.4857 64.7142 78.724 64.6074 79.0234C64.5032 79.3203 64.4511 79.6523 64.4511 80.0195C64.4511 80.3841 64.5032 80.7148 64.6074 81.0117C64.7142 81.3086 64.8743 81.5456 65.0879 81.7227C65.304 81.8971 65.5748 81.9844 65.9004 81.9844ZM74.7099 78.5859L73.4209 78.7266C73.3844 78.5964 73.3206 78.474 73.2295 78.3594C73.1409 78.2448 73.0211 78.1523 72.8701 78.082C72.719 78.0117 72.5341 77.9766 72.3154 77.9766C72.0211 77.9766 71.7737 78.0404 71.5732 78.168C71.3753 78.2956 71.2776 78.4609 71.2802 78.6641C71.2776 78.8385 71.3414 78.9805 71.4716 79.0898C71.6045 79.1992 71.8232 79.2891 72.1279 79.3594L73.1513 79.5781C73.719 79.7005 74.1409 79.8945 74.417 80.1602C74.6956 80.4258 74.8362 80.7734 74.8388 81.2031C74.8362 81.5807 74.7256 81.9141 74.5068 82.2031C74.2907 82.4896 73.9899 82.7135 73.6045 82.875C73.219 83.0365 72.7763 83.1172 72.2763 83.1172C71.542 83.1172 70.9508 82.9635 70.5029 82.6562C70.055 82.3464 69.7881 81.9154 69.7021 81.3633L71.081 81.2305C71.1435 81.5013 71.2763 81.7057 71.4795 81.8437C71.6826 81.9818 71.9469 82.0508 72.2724 82.0508C72.6084 82.0508 72.8779 81.9818 73.081 81.8437C73.2868 81.7057 73.3896 81.5352 73.3896 81.332C73.3896 81.1602 73.3232 81.0182 73.1904 80.9062C73.0602 80.7943 72.8571 80.7083 72.581 80.6484L71.5576 80.4336C70.9821 80.3138 70.5563 80.112 70.2802 79.8281C70.0042 79.5417 69.8675 79.1797 69.8701 78.7422C69.8675 78.3724 69.9677 78.0521 70.1709 77.7812C70.3766 77.5078 70.6618 77.2969 71.0263 77.1484C71.3935 76.9974 71.8167 76.9219 72.2959 76.9219C72.999 76.9219 73.5524 77.0716 73.956 77.3711C74.3623 77.6706 74.6136 78.0755 74.7099 78.5859Z" fill="#115B8F"/>
<path fill-rule="evenodd" clip-rule="evenodd" d="M49.601 14.3569C49.5005 15.08 48.1952 27.6274 48.2189 27.6426C48.2324 27.6513 51.2148 27.3464 54.8466 26.965C58.4783 26.5836 61.5736 26.2694 61.7249 26.2667L62 26.2617V29.8311C62 33.1735 61.9906 33.4006 61.8519 33.4028C61.7703 33.4042 58.7032 33.0959 55.0361 32.7179C51.3689 32.3398 48.3459 32.0529 48.3183 32.0802C48.2745 32.1238 49.5732 55.5623 49.677 56.6011L49.7169 57H46H42.2831L42.323 56.6011C42.4304 55.5267 43.7248 32.123 43.6792 32.0779C43.6504 32.0492 40.6274 32.3358 36.9615 32.7147C33.2957 33.0937 30.2296 33.4029 30.1481 33.4021C30.0094 33.4005 30 33.1738 30 29.8311V26.2617L30.2328 26.2654C30.3608 26.2673 33.4561 26.5825 37.1111 26.9657C40.7661 27.3487 43.7675 27.6543 43.7809 27.6448C43.8043 27.6279 42.4998 15.0858 42.3988 14.3569L42.3494 14H46H49.6506L49.601 14.3569ZM52.4271 18.4979C53.5093 19.1506 54.1405 19.6343 55.0469 20.5053C56.0076 21.4285 57.0397 22.7286 57.5329 23.6369L57.8489 24.2187L56.771 24.3216C56.1782 24.3782 55.5376 24.4454 55.3476 24.4708C55.0031 24.5169 55.0009 24.5153 54.6099 23.9718C54.0096 23.1372 53.0031 22.12 52.1433 21.4789L51.3668 20.8998L51.5144 19.5705C51.5956 18.8394 51.6643 18.2129 51.667 18.1782C51.6759 18.0654 51.7895 18.1132 52.4271 18.4979ZM40.333 18.1782C40.3357 18.2129 40.4044 18.8394 40.4856 19.5705L40.6332 20.8998L39.8567 21.4789C38.9971 22.1199 37.9904 23.1372 37.3905 23.9713L36.9987 24.516L36.6105 24.4685C36.397 24.4424 35.7558 24.3748 35.1858 24.3185L34.1493 24.216L34.4536 23.6642C34.9551 22.7546 35.6634 21.8293 36.5912 20.8717C37.545 19.8874 38.2648 19.3073 39.4309 18.5832C40.1746 18.1214 40.3233 18.0547 40.333 18.1782ZM56.6032 35.3168C57.4259 35.4022 57.8519 35.48 57.8519 35.5448C57.8519 35.5988 57.6519 35.9708 57.4074 36.3713C56.2229 38.3124 54.7953 39.7853 52.9418 40.9789C52.2223 41.4421 51.3389 41.9177 51.2911 41.8674C51.2771 41.8528 51.2392 41.1983 51.2069 40.4131L51.1479 38.9854L51.5158 38.7683C52.5538 38.1558 53.7719 36.993 54.6095 35.8149C54.8937 35.4153 55.1268 35.1685 55.2134 35.1756C55.291 35.182 55.9164 35.2455 56.6032 35.3168ZM37.3855 35.8078C38.2281 36.993 39.4436 38.1542 40.4842 38.7683L40.8521 38.9854L40.7931 40.4131C40.7608 41.1983 40.7229 41.8528 40.7089 41.8674C40.6611 41.9177 39.7777 41.4421 39.0582 40.9789C37.2047 39.7853 35.7771 38.3124 34.5926 36.3713C34.3482 35.9708 34.1481 35.5979 34.1481 35.5428C34.1481 35.4754 34.5148 35.4093 35.2698 35.3408C35.8868 35.2847 36.5099 35.2188 36.6546 35.1944C36.9029 35.1524 36.944 35.1869 37.3855 35.8078Z" fill="#115B8F"/>
</svg>
