<svg width="93" height="95" viewBox="0 0 93 95" fill="none" xmlns="http://www.w3.org/2000/svg">
<rect x="0.534241" width="91.7671" height="91.7671" rx="15" fill="white"/>
<path d="M16.1008 76.8128V67.3582H19.6463C20.3726 67.3582 20.982 67.4937 21.4744 67.7645C21.9699 68.0353 22.3438 68.4077 22.5962 68.8817C22.8516 69.3526 22.9794 69.8881 22.9794 70.4882C22.9794 71.0945 22.8516 71.6331 22.5962 72.104C22.3408 72.5749 21.9637 72.9457 21.4652 73.2165C20.9666 73.4843 20.3526 73.6182 19.6232 73.6182H17.2734V72.2102H19.3924C19.8171 72.2102 20.1649 72.1363 20.4357 71.9886C20.7065 71.8408 20.9066 71.6377 21.0358 71.3792C21.1682 71.1207 21.2343 70.8237 21.2343 70.4882C21.2343 70.1527 21.1682 69.8573 21.0358 69.6018C20.9066 69.3464 20.705 69.1479 20.4311 69.0063C20.1602 68.8617 19.8109 68.7893 19.3831 68.7893H17.8135V76.8128H16.1008ZM26.3067 76.9559C25.8574 76.9559 25.4526 76.8759 25.0926 76.7158C24.7356 76.5527 24.4524 76.3127 24.2431 75.9957C24.0369 75.6787 23.9338 75.2878 23.9338 74.8231C23.9338 74.423 24.0077 74.0921 24.1554 73.8305C24.3031 73.5689 24.5047 73.3597 24.7602 73.2027C25.0156 73.0457 25.3034 72.9272 25.6235 72.8472C25.9466 72.7641 26.2805 72.7041 26.6252 72.6672C27.0407 72.6241 27.3777 72.5856 27.6362 72.5518C27.8948 72.5148 28.0825 72.4594 28.1995 72.3856C28.3195 72.3086 28.3795 72.1901 28.3795 72.0301V72.0024C28.3795 71.6546 28.2764 71.3853 28.0702 71.1945C27.864 71.0037 27.567 70.9083 27.1792 70.9083C26.7699 70.9083 26.4452 70.9976 26.2051 71.1761C25.9682 71.3546 25.8081 71.5654 25.725 71.8085L24.1647 71.5869C24.2878 71.1561 24.4909 70.796 24.774 70.5067C25.0572 70.2143 25.4034 69.9958 25.8127 69.8511C26.2221 69.7034 26.6745 69.6295 27.17 69.6295C27.5116 69.6295 27.8517 69.6696 28.1902 69.7496C28.5288 69.8296 28.8381 69.9619 29.1181 70.1466C29.3982 70.3282 29.6229 70.5759 29.7921 70.8898C29.9645 71.2038 30.0507 71.5962 30.0507 72.067V76.8128H28.4441V75.8387H28.3887C28.2872 76.0357 28.1441 76.2203 27.9594 76.3927C27.7778 76.562 27.5485 76.6989 27.2715 76.8035C26.9976 76.9051 26.676 76.9559 26.3067 76.9559ZM26.7406 75.7279C27.0761 75.7279 27.3669 75.6617 27.6132 75.5294C27.8594 75.394 28.0486 75.2155 28.181 74.9939C28.3164 74.7723 28.3841 74.5307 28.3841 74.2691V73.4335C28.3318 73.4766 28.2425 73.5166 28.1164 73.5535C27.9932 73.5905 27.8548 73.6228 27.7009 73.6505C27.547 73.6782 27.3946 73.7028 27.2438 73.7244C27.093 73.7459 26.9622 73.7644 26.8514 73.7798C26.6022 73.8136 26.379 73.869 26.1821 73.9459C25.9851 74.0229 25.8297 74.1306 25.7158 74.2691C25.6019 74.4045 25.545 74.5799 25.545 74.7954C25.545 75.1031 25.6573 75.3355 25.882 75.4925C26.1066 75.6494 26.3929 75.7279 26.7406 75.7279ZM31.7311 76.8128V69.7219H33.3514V70.9037H33.4253C33.5546 70.4944 33.7762 70.1789 34.0901 69.9573C34.4071 69.7326 34.7687 69.6203 35.1749 69.6203C35.2673 69.6203 35.3704 69.6249 35.4843 69.6342C35.6012 69.6403 35.6982 69.6511 35.7751 69.6665V71.2038C35.7043 71.1791 35.592 71.1576 35.4381 71.1391C35.2873 71.1176 35.1411 71.1068 34.9995 71.1068C34.6948 71.1068 34.4209 71.173 34.1778 71.3053C33.9377 71.4346 33.7485 71.6146 33.61 71.8455C33.4715 72.0763 33.4022 72.3425 33.4022 72.6441V76.8128H31.7311ZM39.6864 76.9513C38.9939 76.9513 38.3938 76.7989 37.886 76.4942C37.3782 76.1896 36.9842 75.7633 36.7042 75.2155C36.4272 74.6677 36.2887 74.0275 36.2887 73.295C36.2887 72.5625 36.4272 71.9209 36.7042 71.37C36.9842 70.8191 37.3782 70.3913 37.886 70.0866C38.3938 69.7819 38.9939 69.6295 39.6864 69.6295C40.3789 69.6295 40.979 69.7819 41.4868 70.0866C41.9946 70.3913 42.387 70.8191 42.664 71.37C42.9441 71.9209 43.0841 72.5625 43.0841 73.295C43.0841 74.0275 42.9441 74.6677 42.664 75.2155C42.387 75.7633 41.9946 76.1896 41.4868 76.4942C40.979 76.7989 40.3789 76.9513 39.6864 76.9513ZM39.6956 75.6125C40.0711 75.6125 40.385 75.5094 40.6374 75.3032C40.8898 75.0939 41.0775 74.8138 41.2006 74.463C41.3268 74.1121 41.3899 73.7213 41.3899 73.2904C41.3899 72.8565 41.3268 72.4641 41.2006 72.1132C41.0775 71.7593 40.8898 71.4777 40.6374 71.2684C40.385 71.0591 40.0711 70.9545 39.6956 70.9545C39.3109 70.9545 38.9909 71.0591 38.7354 71.2684C38.483 71.4777 38.2938 71.7593 38.1676 72.1132C38.0445 72.4641 37.9829 72.8565 37.9829 73.2904C37.9829 73.7213 38.0445 74.1121 38.1676 74.463C38.2938 74.8138 38.483 75.0939 38.7354 75.3032C38.9909 75.5094 39.3109 75.6125 39.6956 75.6125ZM39.0447 68.7893L40.0788 66.6796H41.713L40.2958 68.7893H39.0447ZM49.2344 79.4719V75.6956H49.1652C49.079 75.8679 48.9544 76.0511 48.7912 76.245C48.6281 76.4358 48.4127 76.5989 48.1449 76.7343C47.8772 76.8697 47.5402 76.9374 47.1339 76.9374C46.5769 76.9374 46.0783 76.7943 45.6382 76.5081C45.1981 76.2219 44.8503 75.8064 44.5949 75.2616C44.3394 74.7169 44.2117 74.0552 44.2117 73.2766C44.2117 72.4887 44.341 71.8239 44.5995 71.2822C44.8611 70.7375 45.2135 70.3266 45.6567 70.0496C46.0998 69.7696 46.5938 69.6295 47.1386 69.6295C47.554 69.6295 47.8957 69.7003 48.1634 69.8419C48.4312 69.9804 48.6435 70.1481 48.8005 70.3451C48.9574 70.539 49.079 70.7221 49.1652 70.8945H49.2667V69.7219H50.9102V79.4719H49.2344ZM47.6002 75.5663C47.9541 75.5663 48.2557 75.4709 48.505 75.2801C48.7543 75.0862 48.9436 74.8169 49.0729 74.4722C49.2021 74.1275 49.2667 73.7259 49.2667 73.2673C49.2667 72.8088 49.2021 72.4102 49.0729 72.0717C48.9467 71.7331 48.7589 71.47 48.5096 71.2822C48.2634 71.0945 47.9603 71.0006 47.6002 71.0006C47.2278 71.0006 46.917 71.0976 46.6677 71.2915C46.4184 71.4854 46.2306 71.7531 46.1045 72.0947C45.9783 72.4364 45.9152 72.8272 45.9152 73.2673C45.9152 73.7105 45.9783 74.106 46.1045 74.4538C46.2337 74.7985 46.423 75.0708 46.6723 75.2709C46.9247 75.4678 47.234 75.5663 47.6002 75.5663ZM57.1471 73.8305V69.7219H58.8182V76.8128H57.1979V75.5525H57.124C56.964 75.9495 56.7008 76.2742 56.3346 76.5266C55.9714 76.7789 55.5236 76.9051 54.9912 76.9051C54.5265 76.9051 54.1156 76.802 53.7586 76.5958C53.4047 76.3865 53.1277 76.0834 52.9276 75.6864C52.7276 75.2863 52.6275 74.8031 52.6275 74.2368V69.7219H54.2987V73.9783C54.2987 74.4276 54.4218 74.7846 54.668 75.0493C54.9142 75.314 55.2374 75.4463 55.6375 75.4463C55.8837 75.4463 56.1222 75.3863 56.353 75.2663C56.5839 75.1462 56.7731 74.9677 56.9209 74.7308C57.0717 74.4907 57.1471 74.1906 57.1471 73.8305ZM60.5367 76.8128V69.7219H62.2079V76.8128H60.5367ZM61.3769 68.7155C61.1122 68.7155 60.8845 68.6278 60.6937 68.4523C60.5029 68.2738 60.4075 68.0599 60.4075 67.8107C60.4075 67.5583 60.5029 67.3444 60.6937 67.169C60.8845 66.9905 61.1122 66.9012 61.3769 66.9012C61.6447 66.9012 61.8724 66.9905 62.0602 67.169C62.251 67.3444 62.3464 67.5583 62.3464 67.8107C62.3464 68.0599 62.251 68.2738 62.0602 68.4523C61.8724 68.6278 61.6447 68.7155 61.3769 68.7155ZM65.9669 76.9559C65.5175 76.9559 65.1128 76.8759 64.7527 76.7158C64.3957 76.5527 64.1126 76.3127 63.9033 75.9957C63.6971 75.6787 63.594 75.2878 63.594 74.8231C63.594 74.423 63.6678 74.0921 63.8156 73.8305C63.9633 73.5689 64.1649 73.3597 64.4203 73.2027C64.6758 73.0457 64.9635 72.9272 65.2836 72.8472C65.6068 72.7641 65.9407 72.7041 66.2854 72.6672C66.7009 72.6241 67.0379 72.5856 67.2964 72.5518C67.5549 72.5148 67.7427 72.4594 67.8596 72.3856C67.9796 72.3086 68.0397 72.1901 68.0397 72.0301V72.0024C68.0397 71.6546 67.9366 71.3853 67.7303 71.1945C67.5241 71.0037 67.2272 70.9083 66.8394 70.9083C66.43 70.9083 66.1053 70.9976 65.8653 71.1761C65.6283 71.3546 65.4683 71.5654 65.3852 71.8085L63.8248 71.5869C63.9479 71.1561 64.151 70.796 64.4342 70.5067C64.7173 70.2143 65.0636 69.9958 65.4729 69.8511C65.8822 69.7034 66.3346 69.6295 66.8301 69.6295C67.1718 69.6295 67.5118 69.6696 67.8504 69.7496C68.1889 69.8296 68.4982 69.9619 68.7783 70.1466C69.0584 70.3282 69.283 70.5759 69.4523 70.8898C69.6246 71.2038 69.7108 71.5962 69.7108 72.067V76.8128H68.1043V75.8387H68.0489C67.9473 76.0357 67.8042 76.2203 67.6196 76.3927C67.438 76.562 67.2087 76.6989 66.9317 76.8035C66.6578 76.9051 66.3362 76.9559 65.9669 76.9559ZM66.4008 75.7279C66.7363 75.7279 67.0271 75.6617 67.2733 75.5294C67.5195 75.394 67.7088 75.2155 67.8411 74.9939C67.9766 74.7723 68.0443 74.5307 68.0443 74.2691V73.4335C67.9919 73.4766 67.9027 73.5166 67.7765 73.5535C67.6534 73.5905 67.5149 73.6228 67.361 73.6505C67.2071 73.6782 67.0548 73.7028 66.904 73.7244C66.7532 73.7459 66.6224 73.7644 66.5116 73.7798C66.2623 73.8136 66.0392 73.869 65.8422 73.9459C65.6452 74.0229 65.4898 74.1306 65.3759 74.2691C65.2621 74.4045 65.2051 74.5799 65.2051 74.7954C65.2051 75.1031 65.3175 75.3355 65.5421 75.4925C65.7668 75.6494 66.053 75.7279 66.4008 75.7279ZM76.9956 71.5962L75.4722 71.7624C75.4291 71.6085 75.3537 71.4638 75.246 71.3284C75.1413 71.193 74.9998 71.0837 74.8213 71.0006C74.6428 70.9175 74.4242 70.876 74.1657 70.876C73.8179 70.876 73.5256 70.9514 73.2886 71.1022C73.0547 71.253 72.9393 71.4484 72.9424 71.6885C72.9393 71.8947 73.0147 72.0624 73.1686 72.1917C73.3255 72.3209 73.584 72.4271 73.9441 72.5102L75.1536 72.7687C75.8246 72.9134 76.3232 73.1427 76.6494 73.4566C76.9787 73.7705 77.1449 74.1814 77.148 74.6892C77.1449 75.1355 77.0141 75.5294 76.7556 75.871C76.5001 76.2096 76.1446 76.4742 75.6892 76.6651C75.2337 76.8559 74.7105 76.9513 74.1196 76.9513C73.2517 76.9513 72.553 76.7697 72.0237 76.4065C71.4943 76.0403 71.1789 75.5309 71.0773 74.8785L72.7069 74.7215C72.7808 75.0416 72.9377 75.2832 73.1778 75.4463C73.4178 75.6094 73.7302 75.691 74.1149 75.691C74.512 75.691 74.8305 75.6094 75.0705 75.4463C75.3137 75.2832 75.4352 75.0816 75.4352 74.8415C75.4352 74.6384 75.3568 74.4707 75.1998 74.3384C75.0459 74.206 74.8059 74.1044 74.4796 74.0337L73.2701 73.7798C72.59 73.6382 72.0868 73.3997 71.7605 73.0642C71.4343 72.7257 71.2727 72.2979 71.2758 71.7808C71.2727 71.3438 71.3912 70.9652 71.6313 70.6452C71.8744 70.322 72.2114 70.0727 72.6423 69.8973C73.0762 69.7188 73.5763 69.6295 74.1426 69.6295C74.9736 69.6295 75.6276 69.8065 76.1046 70.1604C76.5848 70.5144 76.8817 70.9929 76.9956 71.5962Z" fill="#115B8F"/>
<path d="M58.3753 35.2635V28.8676L48.4107 23.9018V20.9224H52.3966V16.9498H48.4107V12.9772H44.4249V16.9498H40.439V20.9224H44.4249V23.9018L34.4603 28.8676V35.2635L26.4886 38.7991V54.6895H42.432V48.7306C42.432 46.5457 44.2256 44.758 46.4178 44.758C48.61 44.758 50.4036 46.5457 50.4036 48.7306V54.6895H66.347V38.7991L58.3753 35.2635ZM46.4178 37.8059C44.7637 37.8059 43.4284 36.4751 43.4284 34.8265C43.4284 33.1779 44.7637 31.847 46.4178 31.847C48.0719 31.847 49.4072 33.1779 49.4072 34.8265C49.4072 36.4751 48.0719 37.8059 46.4178 37.8059Z" fill="#115B8F"/>
</svg>
