<svg width="92" height="96" viewBox="0 0 92 96" fill="none" xmlns="http://www.w3.org/2000/svg">
<rect y="0.547974" width="91.7671" height="91.7671" rx="15" fill="white"/>
<path d="M24.7002 68.1789L27.3501 76.1931H27.4545L30.0994 68.1789H32.1278L28.5383 78.3608H26.2613L22.6768 68.1789H24.7002ZM33.3893 78.3608V70.7244H35.1891V78.3608H33.3893ZM33.6031 69.7201L34.7168 67.4481H36.4767L34.9504 69.7201H33.6031ZM39.8735 78.495C39.2736 78.495 38.7367 78.3409 38.2627 78.0326C37.7888 77.7244 37.4143 77.2769 37.1392 76.6903C36.8641 76.1037 36.7265 75.3911 36.7265 74.5525C36.7265 73.704 36.8657 72.9881 37.1441 72.4048C37.4259 71.8181 37.8054 71.3757 38.2826 71.0774C38.7599 70.7758 39.2919 70.625 39.8785 70.625C40.3259 70.625 40.6938 70.7012 40.9822 70.8537C41.2706 71.0028 41.4992 71.1834 41.6683 71.3956C41.8373 71.6044 41.9682 71.8016 42.061 71.9872H42.1356V68.1789H43.9403V78.3608H42.1704V77.1576H42.061C41.9682 77.3432 41.834 77.5404 41.6583 77.7493C41.4827 77.9547 41.2507 78.1304 40.9623 78.2762C40.674 78.4221 40.311 78.495 39.8735 78.495ZM40.3757 77.0184C40.7568 77.0184 41.0816 76.9157 41.3501 76.7102C41.6186 76.5014 41.8224 76.2114 41.9616 75.8402C42.1008 75.4689 42.1704 75.0364 42.1704 74.5426C42.1704 74.0487 42.1008 73.6195 41.9616 73.2549C41.8257 72.8903 41.6235 72.607 41.3551 72.4048C41.0899 72.2026 40.7634 72.1015 40.3757 72.1015C39.9746 72.1015 39.6399 72.2059 39.3714 72.4147C39.1029 72.6235 38.9008 72.9119 38.7649 73.2798C38.629 73.6477 38.561 74.0686 38.561 74.5426C38.561 75.0198 38.629 75.4457 38.7649 75.8203C38.9041 76.1915 39.1079 76.4848 39.3764 76.7002C39.6482 76.9124 39.9813 77.0184 40.3757 77.0184ZM49.2388 78.5099C48.4731 78.5099 47.8119 78.3508 47.2551 78.0326C46.7016 77.7111 46.2757 77.2571 45.9774 76.6704C45.6791 76.0805 45.53 75.3861 45.53 74.5873C45.53 73.8018 45.6791 73.1124 45.9774 72.5191C46.279 71.9225 46.6999 71.4585 47.2402 71.1271C47.7804 70.7923 48.4151 70.625 49.1443 70.625C49.615 70.625 50.0591 70.7012 50.4767 70.8537C50.8976 71.0028 51.2688 71.2348 51.5903 71.5497C51.9151 71.8645 52.1704 72.2656 52.356 72.7528C52.5416 73.2367 52.6344 73.8134 52.6344 74.4829V75.0348H46.3751V73.8217H50.9092C50.9059 73.477 50.8313 73.1704 50.6855 72.9019C50.5397 72.6302 50.3358 72.4164 50.074 72.2606C49.8155 72.1048 49.5139 72.0269 49.1692 72.0269C48.8013 72.0269 48.4781 72.1164 48.1997 72.2954C47.9213 72.4711 47.7042 72.7031 47.5484 72.9914C47.396 73.2765 47.3181 73.5897 47.3148 73.9311V74.99C47.3148 75.4341 47.396 75.8153 47.5584 76.1335C47.7208 76.4484 47.9478 76.6903 48.2395 76.8593C48.5311 77.0251 48.8725 77.1079 49.2636 77.1079C49.5255 77.1079 49.7624 77.0715 49.9746 76.9985C50.1867 76.9223 50.3706 76.8113 50.5264 76.6654C50.6822 76.5196 50.7998 76.339 50.8794 76.1235L52.5598 76.3125C52.4537 76.7566 52.2516 77.1444 51.9533 77.4758C51.6583 77.8039 51.2804 78.0591 50.8197 78.2414C50.359 78.4204 49.832 78.5099 49.2388 78.5099ZM57.4879 78.5099C56.7421 78.5099 56.0958 78.3458 55.549 78.0177C55.0021 77.6896 54.5778 77.2305 54.2762 76.6406C53.9779 76.0506 53.8288 75.3612 53.8288 74.5724C53.8288 73.7836 53.9779 73.0925 54.2762 72.4992C54.5778 71.906 55.0021 71.4453 55.549 71.1171C56.0958 70.789 56.7421 70.625 57.4879 70.625C58.2336 70.625 58.8799 70.789 59.4268 71.1171C59.9737 71.4453 60.3963 71.906 60.6946 72.4992C60.9962 73.0925 61.147 73.7836 61.147 74.5724C61.147 75.3612 60.9962 76.0506 60.6946 76.6406C60.3963 77.2305 59.9737 77.6896 59.4268 78.0177C58.8799 78.3458 58.2336 78.5099 57.4879 78.5099ZM57.4978 77.0681C57.9022 77.0681 58.2402 76.9571 58.512 76.735C58.7838 76.5097 58.986 76.2081 59.1186 75.8302C59.2545 75.4524 59.3224 75.0314 59.3224 74.5674C59.3224 74.1001 59.2545 73.6775 59.1186 73.2997C58.986 72.9185 58.7838 72.6153 58.512 72.3899C58.2402 72.1645 57.9022 72.0518 57.4978 72.0518C57.0835 72.0518 56.7388 72.1645 56.4637 72.3899C56.192 72.6153 55.9881 72.9185 55.8522 73.2997C55.7197 73.6775 55.6534 74.1001 55.6534 74.5674C55.6534 75.0314 55.7197 75.4524 55.8522 75.8302C55.9881 76.2081 56.192 76.5097 56.4637 76.735C56.7388 76.9571 57.0835 77.0681 57.4978 77.0681ZM68.71 72.7429L67.0694 72.9218C67.023 72.7561 66.9418 72.6003 66.8258 72.4545C66.7131 72.3087 66.5606 72.191 66.3684 72.1015C66.1762 72.012 65.9408 71.9673 65.6624 71.9673C65.2879 71.9673 64.973 72.0485 64.7178 72.2109C64.4659 72.3733 64.3416 72.5838 64.3449 72.8423C64.3416 73.0644 64.4228 73.245 64.5886 73.3842C64.7576 73.5234 65.036 73.6377 65.4238 73.7272L66.7263 74.0056C67.4489 74.1614 67.9858 74.4083 68.3371 74.7464C68.6918 75.0845 68.8708 75.5269 68.8741 76.0738C68.8708 76.5544 68.7299 76.9787 68.4515 77.3466C68.1764 77.7111 67.7936 77.9962 67.303 78.2017C66.8125 78.4072 66.2491 78.5099 65.6127 78.5099C64.678 78.5099 63.9257 78.3144 63.3556 77.9233C62.7855 77.5288 62.4458 76.9803 62.3364 76.2777L64.0914 76.1086C64.1709 76.4533 64.34 76.7135 64.5985 76.8892C64.857 77.0648 65.1934 77.1527 65.6077 77.1527C66.0353 77.1527 66.3783 77.0648 66.6369 76.8892C66.8987 76.7135 67.0296 76.4964 67.0296 76.2379C67.0296 76.0191 66.9451 75.8385 66.7761 75.696C66.6103 75.5535 66.3518 75.4441 66.0005 75.3679L64.6979 75.0944C63.9655 74.942 63.4235 74.6851 63.0722 74.3238C62.7209 73.9592 62.5469 73.4985 62.5502 72.9417C62.5469 72.4711 62.6745 72.0634 62.933 71.7187C63.1949 71.3707 63.5578 71.1022 64.0218 70.9133C64.4891 70.7211 65.0277 70.625 65.6376 70.625C66.5324 70.625 67.2368 70.8155 67.7505 71.1967C68.2675 71.5778 68.5874 72.0932 68.71 72.7429Z" fill="#115B8F"/>
<path d="M57.7793 20.0137H34.6058C30.3397 20.0137 26.8813 23.4721 26.8813 27.7382V43.1872C26.8813 47.4534 30.3397 50.9117 34.6058 50.9117H57.7793C62.0454 50.9117 65.5038 47.4534 65.5038 43.1872V27.7382C65.5038 23.4721 62.0454 20.0137 57.7793 20.0137Z" stroke="#115B8F" stroke-width="4.16667" stroke-linecap="round" stroke-linejoin="round"/>
<path d="M51.9859 35.4627L42.3303 29.6694V41.2561L51.9859 35.4627Z" stroke="#115B8F" stroke-width="4.16667" stroke-linecap="round" stroke-linejoin="round"/>
</svg>
