<svg width="93" height="95" viewBox="0 0 93 95" fill="none" xmlns="http://www.w3.org/2000/svg">
<rect x="0.76709" width="91.7671" height="91.7671" rx="15" fill="white"/>
<path d="M16.1891 77.8128V67.631H20.0073C20.7895 67.631 21.4457 67.7768 21.976 68.0685C22.5096 68.3601 22.9123 68.7612 23.1841 69.2716C23.4592 69.7787 23.5968 70.3554 23.5968 71.0017C23.5968 71.6546 23.4592 72.2347 23.1841 72.7418C22.909 73.2489 22.503 73.6482 21.9661 73.9399C21.4291 74.2283 20.7679 74.3724 19.9824 74.3724H17.4519V72.8561H19.7338C20.1912 72.8561 20.5657 72.7766 20.8574 72.6175C21.1491 72.4584 21.3645 72.2396 21.5037 71.9612C21.6462 71.6828 21.7175 71.363 21.7175 71.0017C21.7175 70.6404 21.6462 70.3223 21.5037 70.0472C21.3645 69.7721 21.1474 69.5583 20.8524 69.4058C20.5608 69.25 20.1846 69.1722 19.7239 69.1722H18.0335V77.8128H16.1891ZM28.3409 77.9619C27.5952 77.9619 26.9489 77.7979 26.402 77.4697C25.8551 77.1416 25.4309 76.6826 25.1293 76.0926C24.831 75.5026 24.6818 74.8133 24.6818 74.0244C24.6818 73.2356 24.831 72.5446 25.1293 71.9513C25.4309 71.358 25.8551 70.8973 26.402 70.5692C26.9489 70.241 27.5952 70.077 28.3409 70.077C29.0866 70.077 29.7329 70.241 30.2798 70.5692C30.8267 70.8973 31.2493 71.358 31.5476 71.9513C31.8492 72.5446 32 73.2356 32 74.0244C32 74.8133 31.8492 75.5026 31.5476 76.0926C31.2493 76.6826 30.8267 77.1416 30.2798 77.4697C29.7329 77.7979 29.0866 77.9619 28.3409 77.9619ZM28.3508 76.5202C28.7552 76.5202 29.0933 76.4091 29.365 76.1871C29.6368 75.9617 29.839 75.6601 29.9716 75.2822C30.1075 74.9044 30.1754 74.4835 30.1754 74.0195C30.1754 73.5521 30.1075 73.1295 29.9716 72.7517C29.839 72.3705 29.6368 72.0673 29.365 71.8419C29.0933 71.6165 28.7552 71.5038 28.3508 71.5038C27.9365 71.5038 27.5918 71.6165 27.3168 71.8419C27.045 72.0673 26.8411 72.3705 26.7052 72.7517C26.5727 73.1295 26.5064 73.5521 26.5064 74.0195C26.5064 74.4835 26.5727 74.9044 26.7052 75.2822C26.8411 75.6601 27.045 75.9617 27.3168 76.1871C27.5918 76.4091 27.9365 76.5202 28.3508 76.5202ZM36.3613 77.947C35.7614 77.947 35.2245 77.7929 34.7505 77.4847C34.2766 77.1764 33.902 76.729 33.6269 76.1423C33.3518 75.5557 33.2143 74.8431 33.2143 74.0045C33.2143 73.1561 33.3535 72.4401 33.6319 71.8568C33.9136 71.2702 34.2931 70.8277 34.7704 70.5294C35.2477 70.2278 35.7796 70.077 36.3663 70.077C36.8137 70.077 37.1816 70.1532 37.47 70.3057C37.7583 70.4548 37.987 70.6355 38.1561 70.8476C38.3251 71.0564 38.456 71.2536 38.5488 71.4392H38.6234V67.631H40.4281V77.8128H38.6582V76.6097H38.5488C38.456 76.7953 38.3218 76.9925 38.1461 77.2013C37.9705 77.4068 37.7385 77.5824 37.4501 77.7283C37.1617 77.8741 36.7988 77.947 36.3613 77.947ZM36.8635 76.4705C37.2446 76.4705 37.5694 76.3677 37.8379 76.1622C38.1063 75.9534 38.3102 75.6634 38.4494 75.2922C38.5886 74.921 38.6582 74.4884 38.6582 73.9946C38.6582 73.5008 38.5886 73.0715 38.4494 72.707C38.3135 72.3424 38.1113 72.059 37.8429 71.8568C37.5777 71.6546 37.2512 71.5535 36.8635 71.5535C36.4624 71.5535 36.1277 71.658 35.8592 71.8668C35.5907 72.0756 35.3885 72.3639 35.2527 72.7318C35.1168 73.0997 35.0488 73.5206 35.0488 73.9946C35.0488 74.4719 35.1168 74.8978 35.2527 75.2723C35.3919 75.6435 35.5957 75.9368 35.8642 76.1523C36.1359 76.3644 36.469 76.4705 36.8635 76.4705ZM45.6768 77.9619C44.9145 77.9619 44.2599 77.7946 43.7131 77.4598C43.1695 77.125 42.7502 76.6627 42.4552 76.0727C42.1636 75.4794 42.0177 74.7967 42.0177 74.0244C42.0177 73.2489 42.1669 72.5644 42.4652 71.9712C42.7635 71.3746 43.1844 70.9106 43.728 70.5791C44.2748 70.2444 44.9212 70.077 45.6669 70.077C46.2867 70.077 46.8352 70.1913 47.3125 70.42C47.7931 70.6454 48.1759 70.9652 48.4609 71.3795C48.746 71.7905 48.9084 72.2711 48.9481 72.8213H47.228C47.1584 72.4534 46.9927 72.1468 46.7308 71.9016C46.4723 71.653 46.1259 71.5287 45.6918 71.5287C45.3239 71.5287 45.0007 71.6281 44.7223 71.827C44.4439 72.0225 44.2268 72.3043 44.071 72.6722C43.9186 73.0401 43.8423 73.4809 43.8423 73.9946C43.8423 74.515 43.9186 74.9624 44.071 75.3369C44.2235 75.7081 44.4373 75.9948 44.7123 76.197C44.9908 76.3959 45.3172 76.4953 45.6918 76.4953C45.9569 76.4953 46.1939 76.4456 46.4027 76.3462C46.6148 76.2434 46.7921 76.0959 46.9347 75.9037C47.0772 75.7115 47.1749 75.4778 47.228 75.2027H48.9481C48.9051 75.7429 48.746 76.2219 48.4709 76.6395C48.1958 77.0538 47.8213 77.3786 47.3473 77.6139C46.8733 77.8459 46.3165 77.9619 45.6768 77.9619ZM52.6234 77.9669C52.1395 77.9669 51.7037 77.8807 51.3159 77.7084C50.9314 77.5327 50.6265 77.2742 50.4011 76.9328C50.179 76.5914 50.068 76.1705 50.068 75.67C50.068 75.2392 50.1475 74.8829 50.3066 74.6011C50.4657 74.3194 50.6828 74.094 50.9579 73.925C51.233 73.756 51.5429 73.6284 51.8876 73.5422C52.2356 73.4527 52.5952 73.3881 52.9664 73.3483C53.4139 73.3019 53.7768 73.2605 54.0552 73.224C54.3336 73.1842 54.5358 73.1246 54.6617 73.045C54.791 72.9622 54.8556 72.8346 54.8556 72.6622V72.6324C54.8556 72.2579 54.7446 71.9678 54.5225 71.7624C54.3005 71.5569 53.9806 71.4541 53.563 71.4541C53.1222 71.4541 52.7725 71.5502 52.514 71.7425C52.2588 71.9347 52.0865 72.1617 51.997 72.4236L50.3166 72.1849C50.4492 71.7209 50.6679 71.3331 50.9728 71.0216C51.2778 70.7067 51.6506 70.4714 52.0914 70.3156C52.5322 70.1565 53.0195 70.077 53.5531 70.077C53.921 70.077 54.2872 70.1201 54.6518 70.2062C55.0164 70.2924 55.3495 70.4349 55.6511 70.6338C55.9527 70.8294 56.1947 71.0962 56.3769 71.4342C56.5626 71.7723 56.6554 72.1949 56.6554 72.702V77.8128H54.9252V76.7638H54.8656C54.7562 76.9759 54.6021 77.1748 54.4032 77.3604C54.2077 77.5427 53.9608 77.6901 53.6625 77.8028C53.3675 77.9122 53.0211 77.9669 52.6234 77.9669ZM53.0907 76.6445C53.452 76.6445 53.7652 76.5732 54.0304 76.4307C54.2955 76.2848 54.4993 76.0926 54.6419 75.854C54.7877 75.6153 54.8606 75.3552 54.8606 75.0734V74.1736C54.8043 74.22 54.7081 74.2631 54.5723 74.3028C54.4397 74.3426 54.2905 74.3774 54.1248 74.4072C53.9591 74.4371 53.795 74.4636 53.6326 74.4868C53.4702 74.51 53.3294 74.5299 53.21 74.5464C52.9416 74.5829 52.7013 74.6426 52.4892 74.7254C52.277 74.8083 52.1097 74.9243 51.987 75.0734C51.8644 75.2193 51.8031 75.4082 51.8031 75.6402C51.8031 75.9716 51.9241 76.2219 52.166 76.3909C52.408 76.5599 52.7162 76.6445 53.0907 76.6445ZM64.5005 72.1949L62.8599 72.3739C62.8135 72.2081 62.7323 72.0524 62.6163 71.9065C62.5036 71.7607 62.3511 71.643 62.1589 71.5535C61.9667 71.4641 61.7313 71.4193 61.4529 71.4193C61.0784 71.4193 60.7635 71.5005 60.5083 71.6629C60.2564 71.8253 60.1322 72.0358 60.1355 72.2943C60.1322 72.5164 60.2134 72.697 60.3791 72.8362C60.5481 72.9754 60.8265 73.0898 61.2143 73.1793L62.5169 73.4577C63.2394 73.6134 63.7763 73.8604 64.1277 74.1984C64.4823 74.5365 64.6613 74.979 64.6646 75.5259C64.6613 76.0064 64.5204 76.4307 64.242 76.7986C63.9669 77.1632 63.5841 77.4482 63.0936 77.6537C62.603 77.8592 62.0396 77.9619 61.4032 77.9619C60.4686 77.9619 59.7162 77.7664 59.1461 77.3753C58.576 76.9809 58.2363 76.4323 58.1269 75.7297L59.8819 75.5607C59.9615 75.9053 60.1305 76.1655 60.389 76.3412C60.6475 76.5169 60.984 76.6047 61.3983 76.6047C61.8258 76.6047 62.1688 76.5169 62.4274 76.3412C62.6892 76.1655 62.8201 75.9484 62.8201 75.6899C62.8201 75.4712 62.7356 75.2905 62.5666 75.148C62.4009 75.0055 62.1423 74.8961 61.791 74.8199L60.4885 74.5464C59.756 74.394 59.2141 74.1371 58.8627 73.7759C58.5114 73.4113 58.3374 72.9506 58.3407 72.3937C58.3374 71.9231 58.465 71.5154 58.7235 71.1707C58.9854 70.8227 59.3483 70.5543 59.8123 70.3653C60.2796 70.1731 60.8182 70.077 61.4281 70.077C62.323 70.077 63.0273 70.2676 63.541 70.6487C64.0581 71.0299 64.3779 71.5453 64.5005 72.1949ZM69.9618 70.1764V71.5685H65.5719V70.1764H69.9618ZM66.6557 68.3469H68.4554V75.5159C68.4554 75.7579 68.4919 75.9435 68.5648 76.0727C68.641 76.1987 68.7405 76.2848 68.8631 76.3312C68.9857 76.3776 69.1216 76.4009 69.2708 76.4009C69.3835 76.4009 69.4862 76.3926 69.579 76.376C69.6751 76.3594 69.748 76.3445 69.7978 76.3312L70.101 77.7382C70.0049 77.7714 69.8674 77.8078 69.6884 77.8476C69.5127 77.8874 69.2973 77.9106 69.0421 77.9172C68.5913 77.9304 68.1853 77.8625 67.824 77.7134C67.4628 77.5609 67.1761 77.3256 66.9639 77.0074C66.7551 76.6892 66.6524 76.2915 66.6557 75.8142V68.3469ZM77.3931 72.1949L75.7525 72.3739C75.7061 72.2081 75.6249 72.0524 75.5089 71.9065C75.3962 71.7607 75.2437 71.643 75.0515 71.5535C74.8593 71.4641 74.6239 71.4193 74.3455 71.4193C73.971 71.4193 73.6561 71.5005 73.4009 71.6629C73.149 71.8253 73.0247 72.0358 73.028 72.2943C73.0247 72.5164 73.1059 72.697 73.2717 72.8362C73.4407 72.9754 73.7191 73.0898 74.1069 73.1793L75.4094 73.4577C76.132 73.6134 76.6689 73.8604 77.0202 74.1984C77.3749 74.5365 77.5539 74.979 77.5572 75.5259C77.5539 76.0064 77.413 76.4307 77.1346 76.7986C76.8595 77.1632 76.4767 77.4482 75.9861 77.6537C75.4956 77.8592 74.9322 77.9619 74.2958 77.9619C73.3611 77.9619 72.6088 77.7664 72.0387 77.3753C71.4686 76.9809 71.1289 76.4323 71.0195 75.7297L72.7745 75.5607C72.854 75.9053 73.0231 76.1655 73.2816 76.3412C73.5401 76.5169 73.8765 76.6047 74.2908 76.6047C74.7184 76.6047 75.0614 76.5169 75.32 76.3412C75.5818 76.1655 75.7127 75.9484 75.7127 75.6899C75.7127 75.4712 75.6282 75.2905 75.4592 75.148C75.2934 75.0055 75.0349 74.8961 74.6836 74.8199L73.381 74.5464C72.6485 74.394 72.1066 74.1371 71.7553 73.7759C71.404 73.4113 71.23 72.9506 71.2333 72.3937C71.23 71.9231 71.3576 71.5154 71.6161 71.1707C71.878 70.8227 72.2409 70.5543 72.7049 70.3653C73.1722 70.1731 73.7108 70.077 74.3207 70.077C75.2155 70.077 75.9199 70.2676 76.4336 70.6487C76.9506 71.0299 77.2705 71.5453 77.3931 72.1949Z" fill="#115B8F"/>
<path d="M38.9455 20.7982C38.9455 18.724 39.7695 16.7346 41.2362 15.2679C42.7029 13.8012 44.6922 12.9772 46.7665 12.9772C48.8408 12.9772 50.8301 13.8012 52.2968 15.2679C53.7636 16.7346 54.5876 18.724 54.5876 20.7982V33.8333C54.5876 35.9076 53.7636 37.8969 52.2968 39.3637C50.8301 40.8304 48.8408 41.6544 46.7665 41.6544C44.6922 41.6544 42.7029 40.8304 41.2362 39.3637C39.7695 37.8969 38.9455 35.9076 38.9455 33.8333V20.7982Z" fill="#115B8F"/>
<path d="M35.0349 29.9228C35.3806 29.9228 35.7122 30.0601 35.9566 30.3046C36.2011 30.5491 36.3384 30.8806 36.3384 31.2263V33.8333C36.3384 36.599 37.4371 39.2515 39.3927 41.2071C41.3484 43.1628 44.0008 44.2614 46.7665 44.2614C49.5322 44.2614 52.1846 43.1628 54.1403 41.2071C56.0959 39.2515 57.1946 36.599 57.1946 33.8333V31.2263C57.1946 30.8806 57.3319 30.5491 57.5764 30.3046C57.8208 30.0601 58.1524 29.9228 58.4981 29.9228C58.8438 29.9228 59.1754 30.0601 59.4198 30.3046C59.6643 30.5491 59.8016 30.8806 59.8016 31.2263V33.8333C59.8017 37.0648 58.6014 40.1811 56.4337 42.5777C54.2659 44.9742 51.2853 46.4801 48.07 46.8033V52.0825H55.8911C56.2368 52.0825 56.5684 52.2198 56.8128 52.4643C57.0573 52.7087 57.1946 53.0403 57.1946 53.386C57.1946 53.7317 57.0573 54.0633 56.8128 54.3077C56.5684 54.5522 56.2368 54.6895 55.8911 54.6895H37.6419C37.2962 54.6895 36.9647 54.5522 36.7202 54.3077C36.4758 54.0633 36.3384 53.7317 36.3384 53.386C36.3384 53.0403 36.4758 52.7087 36.7202 52.4643C36.9647 52.2198 37.2962 52.0825 37.6419 52.0825H45.463V46.8033C42.2477 46.4801 39.2671 44.9742 37.0994 42.5777C34.9316 40.1811 33.7314 37.0648 33.7314 33.8333V31.2263C33.7314 30.8806 33.8687 30.5491 34.1132 30.3046C34.3577 30.0601 34.6892 29.9228 35.0349 29.9228Z" fill="#115B8F"/>
</svg>
