<svg width="44" height="44" viewBox="0 0 44 44" fill="none" xmlns="http://www.w3.org/2000/svg">
<rect width="43.3343" height="43.3343" rx="12" fill="#052F63"/>
<path fill-rule="evenodd" clip-rule="evenodd" d="M28.2921 22.5476C27.9759 22.3902 26.4255 21.6319 26.1368 21.5263C25.8482 21.4218 25.6381 21.37 25.4269 21.6847C25.2168 21.9973 24.613 22.7049 24.4294 22.914C24.2447 23.1242 24.0611 23.1496 23.746 22.9932C23.4308 22.8348 22.4142 22.5043 21.2097 21.4355C20.2727 20.6033 19.6392 19.5757 19.4556 19.261C19.272 18.9473 19.4354 18.7773 19.5935 18.621C19.7357 18.4805 19.9087 18.2545 20.0668 18.0718C20.2249 17.8881 20.2769 17.7571 20.382 17.5469C20.4881 17.3378 20.4351 17.1551 20.3555 16.9978C20.2769 16.8404 19.6466 15.2953 19.3834 14.6669C19.1277 14.0555 18.8677 14.1389 18.6746 14.1283C18.4899 14.1199 18.2798 14.1178 18.0697 14.1178C17.8596 14.1178 17.5179 14.1959 17.2292 14.5106C16.9395 14.8243 16.1256 15.5836 16.1256 17.1287C16.1256 18.6727 17.2547 20.165 17.4128 20.3752C17.5709 20.5843 19.636 23.7547 22.7994 25.1139C23.5528 25.4371 24.1397 25.6303 24.597 25.774C25.3526 26.0137 26.0403 25.9799 26.5836 25.8986C27.1885 25.8088 28.4491 25.1392 28.7123 24.4063C28.9744 23.6734 28.9744 23.045 28.8959 22.914C28.8174 22.7831 28.6073 22.7049 28.291 22.5476H28.2921ZM22.5383 30.3659H22.5341C20.6552 30.3662 18.8108 29.8636 17.1942 28.9106L16.8122 28.6846L12.8412 29.7217L13.9013 25.869L13.652 25.474C12.6015 23.81 12.0456 21.8841 12.0485 19.9189C12.0506 14.1632 16.7559 9.48042 22.5426 9.48042C25.3441 9.48042 27.978 10.5682 29.9582 12.541C30.9348 13.509 31.709 14.6601 32.2358 15.9278C32.7625 17.1955 33.0315 18.5545 33.0271 19.9263C33.025 25.6821 28.3197 30.3659 22.5383 30.3659ZM31.465 11.0424C30.2958 9.87109 28.9046 8.94237 27.3721 8.31004C25.8396 7.67772 24.1963 7.35436 22.5373 7.35871C15.5823 7.35871 9.91976 12.993 9.91764 19.9179C9.91442 22.1217 10.4953 24.2874 11.6017 26.1964L9.81152 32.7052L16.5012 30.9584C18.3518 31.9618 20.4256 32.4876 22.533 32.4876H22.5383C29.4934 32.4876 35.1558 26.8533 35.158 19.9274C35.1631 18.277 34.8394 16.642 34.2055 15.1169C33.5716 13.5918 32.6402 12.2069 31.465 11.0424Z" fill="white"/>
</svg>
