<svg width="32" height="43" viewBox="0 0 32 43" fill="none" xmlns="http://www.w3.org/2000/svg">
<path fill-rule="evenodd" clip-rule="evenodd" d="M19.601 0.356934C19.5005 1.07996 18.1952 13.6274 18.2189 13.6426C18.2324 13.6513 21.2148 13.3464 24.8466 12.965C28.4783 12.5836 31.5736 12.2694 31.7249 12.2667L32 12.2617V15.8311C32 19.1735 31.9906 19.4006 31.8519 19.4028C31.7703 19.4042 28.7032 19.0959 25.0361 18.7179C21.3689 18.3398 18.3459 18.0529 18.3183 18.0802C18.2745 18.1238 19.5732 41.5623 19.677 42.6011L19.7169 43H16H12.2831L12.323 42.6011C12.4304 41.5267 13.7248 18.123 13.6792 18.0779C13.6504 18.0493 10.6274 18.3358 6.96152 18.7147C3.29566 19.0937 0.229588 19.4029 0.148149 19.4021C0.00939779 19.4005 9.68575e-07 19.1738 9.68575e-07 15.8311V12.2617L0.232805 12.2654C0.360805 12.2673 3.45609 12.5825 7.11111 12.9657C10.7661 13.3487 13.7675 13.6543 13.7809 13.6448C13.8043 13.6279 12.4998 1.08583 12.3988 0.356934L12.3494 0H16H19.6506L19.601 0.356934ZM22.4271 4.49787C23.5093 5.15059 24.1405 5.63426 25.0469 6.50535C26.0076 7.4285 27.0397 8.72858 27.5329 9.63687L27.8489 10.2187L26.771 10.3216C26.1782 10.3782 25.5376 10.4454 25.3476 10.4708C25.0031 10.5169 25.0009 10.5153 24.6099 9.9718C24.0096 9.13716 23.0031 8.12003 22.1433 7.47889L21.3668 6.89982L21.5144 5.57052C21.5956 4.83943 21.6643 4.21291 21.667 4.17822C21.6759 4.06543 21.7895 4.11322 22.4271 4.49787ZM10.333 4.17822C10.3357 4.21291 10.4044 4.83943 10.4856 5.57052L10.6332 6.89982L9.85668 7.47889C8.99708 8.11986 7.99043 9.13716 7.39048 9.9713L6.99869 10.516L6.61046 10.4685C6.39695 10.4424 5.75577 10.3748 5.18578 10.3185L4.14925 10.216L4.45359 9.66417C4.95509 8.75462 5.66341 7.82928 6.59124 6.87169C7.54498 5.88739 8.26481 5.30731 9.43094 4.5832C10.1746 4.12137 10.3233 4.05468 10.333 4.17822ZM26.6032 21.3168C27.4259 21.4022 27.8519 21.48 27.8519 21.5448C27.8519 21.5988 27.6519 21.9708 27.4074 22.3713C26.2229 24.3124 24.7953 25.7853 22.9418 26.9789C22.2223 27.4421 21.3389 27.9177 21.2911 27.8674C21.2771 27.8528 21.2392 27.1983 21.2069 26.4131L21.1479 24.9854L21.5158 24.7683C22.5538 24.1558 23.7719 22.993 24.6095 21.8149C24.8937 21.4153 25.1268 21.1685 25.2134 21.1756C25.291 21.182 25.9164 21.2455 26.6032 21.3168ZM7.38548 21.8078C8.22815 22.993 9.44364 24.1542 10.4842 24.7683L10.8521 24.9854L10.7931 26.4131C10.7608 27.1983 10.7229 27.8528 10.7089 27.8674C10.6611 27.9177 9.77769 27.4421 9.0582 26.9789C7.20466 25.7853 5.7771 24.3124 4.59259 22.3713C4.34819 21.9708 4.14815 21.5979 4.14815 21.5428C4.14815 21.4754 4.51479 21.4093 5.26984 21.3408C5.88682 21.2847 6.50988 21.2188 6.65465 21.1944C6.90286 21.1524 6.944 21.1869 7.38548 21.8078Z" fill="white"/>
</svg>
