<svg width="43" height="45" viewBox="0 0 43 45" fill="none" xmlns="http://www.w3.org/2000/svg">
<path d="M34.4 24.0429V17.1429L23.65 11.7857V8.57143H27.95V4.28571H23.65V0H19.35V4.28571H15.05V8.57143H19.35V11.7857L8.6 17.1429V24.0429L0 27.8571V45H17.2V38.5714C17.2 36.2143 19.135 34.2857 21.5 34.2857C23.865 34.2857 25.8 36.2143 25.8 38.5714V45H43V27.8571L34.4 24.0429ZM21.5 26.7857C19.7155 26.7857 18.275 25.35 18.275 23.5714C18.275 21.7929 19.7155 20.3571 21.5 20.3571C23.2845 20.3571 24.725 21.7929 24.725 23.5714C24.725 25.35 23.2845 26.7857 21.5 26.7857Z" fill="#F8F8F8"/>
</svg>
