<svg width="17" height="16" viewBox="0 0 17 16" fill="none" xmlns="http://www.w3.org/2000/svg">
<path d="M15.0037 13.7377L12.7121 11.4972L12.6584 11.4155C12.5586 11.3161 12.422 11.2601 12.2795 11.2601C12.137 11.2601 12.0004 11.3161 11.9005 11.4155C9.95303 13.2022 6.95214 13.2993 4.88804 11.6425C2.82395 9.98561 2.33715 7.08891 3.7505 4.87344C5.16384 2.65798 8.03876 1.81123 10.4686 2.89475C12.8985 3.97828 14.1292 6.65586 13.3447 9.15172C13.2882 9.33203 13.3344 9.52811 13.4659 9.66611C13.5973 9.8041 13.7941 9.86304 13.9821 9.82072C14.17 9.7784 14.3206 9.64126 14.3771 9.46095C15.315 6.49909 13.8985 3.3117 11.0441 1.9607C8.1897 0.609703 4.75393 1.50054 2.95941 4.05694C1.16489 6.61333 1.55016 10.0681 3.86599 12.1863C6.18183 14.3046 9.73323 14.4506 12.2228 12.5299L14.2518 14.5137C14.4614 14.7177 14.8002 14.7177 15.0097 14.5137C15.219 14.3068 15.219 13.9737 15.0097 13.7669L15.0037 13.7377Z" fill="#052F63"/>
</svg>
